<svg xmlns="http://www.w3.org/2000/svg"
shape-rendering="geometricPrecision"
width="4000" height="4000" viewBox="0 0 656 656"><rect width="100%" height="100%" fill="#FFFFFF" />
  <metadata>null</metadata>

<path d="
M 29.34 403.525
C 29.456 403.351 29.572 403.177 29.687 403.003
C 34.568 402.471 39.597 402.771 44.505 402.771
C 47.313 402.771 50.121 402.767 52.929 402.766
C 64.407 402.76 78.984 401.177 86.157 412.321
C 87.093 413.775 87.83 415.392 88.269 417.067
C 88.809 419.129 89.216 421.279 89.157 423.417
C 89.034 427.814 87.688 432.342 84.722 435.666
C 83.644 436.874 82.392 437.811 81.101 438.767
C 80.597 439.141 79.719 439.398 79.56 440.011
C 83.466 441.543 86.863 443.121 89.38 446.672
C 96.248 456.36 92.815 471.498 82.306 477.053
C 74.827 481.007 66.697 480.754 58.497 480.734
C 48.875 480.71 39.252 480.767 29.631 480.642
C 28.921 477.82 29.362 474.397 29.36 471.499
C 29.356 465.666 29.339 459.834 29.34 454.001
C 29.341 443.335 29.375 432.669 29.321 422.003
C 29.289 415.888 28.898 409.624 29.34 403.525 Z
M 45.23 418.116
C 45.297 423.384 45.343 428.681 45.326 433.951
C 49.953 434.36 54.847 433.949 59.503 433.944
C 62.527 433.94 65.963 434.219 68.737 432.776
C 73.388 430.357 74.972 423.436 70.524 419.863
C 68.065 417.888 64.68 417.944 61.693 417.936
C 56.211 417.92 50.701 417.838 45.23 418.116 Z
M 45.416 448.547
C 44.925 452.776 45.26 457.243 45.264 461.499
C 45.265 462.448 44.825 465.206 45.405 465.899
C 50.976 465.392 56.733 465.801 62.324 465.855
C 65.574 465.887 69.262 466.064 72.195 464.43
C 78.004 461.194 78.445 452.382 72.058 449.377
C 68.414 447.663 64.189 447.943 60.26 447.934
C 55.447 447.923 50.499 447.545 45.706 448.006
C 45.61 448.186 45.513 448.367 45.416 448.547 Z"
opacity="1" fill="rgb(27,26,26)" fill-rule="evenodd" />
<path d="
M 29.421 535.468
C 30.613 534.099 31.746 532.693 33.008 531.385
C 34.094 531.384 35.183 532.772 36.044 533.383
C 38.356 535.022 41.127 535.873 43.963 535.398
C 45.154 535.199 46.685 534.704 47.163 533.442
C 48.44 530.067 43.346 529.143 41.192 528.594
C 35.301 527.095 29.139 524.277 30.443 516.948
C 32.319 506.407 48.275 508.054 53.938 514.13
C 53.718 515.329 51.386 517.974 50.441 518.852
C 48.663 518.257 47.102 516.982 45.301 516.348
C 43.547 515.731 41.194 515.251 39.391 515.933
C 37.767 516.548 37.091 518.893 38.428 520.133
C 39.788 521.394 42.149 521.615 43.871 522.074
C 48.929 523.422 54.566 525.435 54.855 531.521
C 55.104 536.775 51.183 540.396 46.299 541.414
C 40.275 542.67 32.901 540.983 29.015 535.941
C 29.15 535.783 29.286 535.625 29.421 535.468 Z"
opacity="1" fill="rgb(227,113,39)" fill-rule="evenodd" />
<path d="
M 58.41 523.605
C 58.631 521.339 59.429 519.174 60.559 517.214
C 61.554 515.489 62.892 513.973 64.429 512.71
C 75.41 503.686 92.281 513.515 90.634 527.368
C 89.022 540.922 71.684 546.678 62.44 536.517
C 61.092 535.035 60.051 533.39 59.333 531.517
C 58.38 529.034 58.154 526.237 58.41 523.605 Z
M 66.425 523.581
C 65.606 527.809 67.879 533.03 72.109 534.505
C 76.85 536.157 81.713 532.651 82.64 527.931
C 83.475 523.677 81.656 518.723 77.534 516.876
C 72.546 514.642 67.39 518.599 66.425 523.581 Z"
opacity="1" fill="rgb(230,112,34)" fill-rule="evenodd" />
<path d="
M 80.486 374.555
C 81.972 374.335 83.514 374.264 85.015 374.279
C 92.069 374.266 99.314 372.817 106.375 372.32
C 122.346 371.197 138.364 370.389 154.364 369.781
C 160.254 369.557 166.153 369.418 172.039 369.104
C 174.205 368.989 177.92 368.124 179.916 369.064
C 167.67 361.487 167.462 337.534 181.195 331.19
C 187.967 328.061 196.58 328.161 203.86 326.88
C 212.146 325.422 220.479 323.827 228.896 323.378
C 243.718 322.585 258.568 323.667 273.389 323.71
C 280.817 323.731 288.252 324.006 295.635 324.825
C 297.544 325.036 302.044 325.318 303.186 327.029
C 301.624 327.467 299.609 326.809 298.002 326.742
C 294.196 326.583 290.301 326.609 286.495 326.747
C 284.599 326.815 282.562 326.685 280.843 327.532
C 282.906 328.541 286.825 328.032 289.146 328.132
C 295.512 328.406 301.885 328.502 308.251 328.61
C 311.975 328.673 314.734 329.333 317.765 331.586
C 318.388 332.049 319.578 332.223 320.002 332.853
C 318.959 333.489 316.259 332.914 315.005 332.994
C 310.048 333.309 304.109 332.329 299.368 334.014
C 299.322 334.8 303.713 334.754 304.549 334.804
C 308.035 335.011 311.493 335.372 314.996 335.394
C 317.201 335.408 319.97 334.991 322.071 335.74
C 323.986 337.468 324.522 340.146 325.534 342.404
C 324.403 343.125 321.884 342.747 320.56 342.748
C 317.159 342.749 313.814 343.053 310.431 343.341
C 309.017 343.461 305.911 343.373 305.24 344.669
C 306.573 345.156 308.107 344.804 309.504 344.974
C 315.041 345.647 320.69 344.878 326.232 345.291
C 326.929 346.791 326.53 349.816 326.302 351.412
C 326.211 352.046 326.137 352.861 325.704 353.358
C 318.93 353.536 311.456 353.137 304.817 354.598
C 304.545 356.08 308.071 355.782 309.173 355.853
C 313.041 356.101 316.928 356.207 320.803 356.254
C 321.713 356.265 324.3 355.878 324.93 356.541
C 323.82 358.842 322.236 362.692 319.957 364.015
C 318.254 364.443 316.249 364.149 314.503 364.145
C 311.101 364.138 307.678 364.239 304.284 364.484
C 303.21 364.561 299.764 364.391 299.427 365.528
C 300.915 366.026 302.456 365.867 304.009 365.925
C 307.163 366.043 310.356 366.092 313.503 366.316
C 314.608 366.394 315.986 366.157 317.011 366.538
C 317.186 367.288 315.96 367.773 315.385 368.054
C 314.075 368.697 311.758 369.725 311.121 371.059
C 314.118 371.15 318.107 368.428 320.345 366.667
C 328.759 360.049 331.618 348.364 327.158 338.599
C 325.111 334.117 321.824 330.407 317.653 327.8
C 315.905 326.707 313.763 326.237 312.139 324.982
C 312.726 324.088 315.139 324.619 316.16 324.724
C 320.107 325.131 324.074 325.472 328.029 325.791
C 338.439 326.63 348.825 328.297 359.284 328.342
C 366.149 328.372 374.376 327.61 379.979 332.557
C 379.712 333.24 376.771 332.794 376.04 332.795
C 372.552 332.802 369.132 333.09 365.657 333.257
C 364.871 333.295 362.946 333 362.763 333.992
C 369.121 335.909 376.598 334.804 383.143 335.176
C 384.535 336.343 386.852 340.35 386.915 342.195
C 382.504 342.493 378.036 342.761 373.641 343.291
C 372.329 343.449 369.895 343.523 369.24 344.687
C 375.135 346.07 381.78 345.157 387.789 345.243
C 388.101 347.153 387.78 349.313 387.775 351.255
C 387.773 351.738 387.883 353.055 387.42 353.361
C 382.905 353.574 378.3 353.531 373.8 354.029
C 372.602 354.162 369.772 354.017 369.094 355.105
C 374.518 356.384 381.006 356.429 386.58 356.429
C 385.236 359.35 383.459 361.831 381.232 364.16
C 379.698 364.47 377.595 363.99 376 363.952
C 373.884 363.9 371.696 364.187 369.577 364.29
C 368.202 364.357 366.827 364.495 365.463 364.682
C 364.792 364.774 364.667 364.92 364.09 365.31
C 363.956 365.401 363.506 365.51 363.665 365.542
C 367.092 366.254 371.015 365.777 374.517 366.115
C 375.596 366.22 376.88 366.026 377.886 366.46
C 377.901 366.556 377.894 367.542 378.081 367.555
C 381.415 367.784 385.136 367.393 388.545 367.41
C 400.365 367.469 412.184 367.673 424.005 367.728
C 462.034 367.904 500.223 369.764 538.172 372.143
C 547.48 372.727 556.788 373.48 566.095 373.975
C 568.571 374.107 571.12 374.167 573.588 374.424
C 574.29 374.498 575.553 374.452 576.089 374.962
C 528.264 374.198 480.349 374.825 432.503 374.854
C 353.834 374.902 275.165 374.722 196.496 374.722
C 166.837 374.722 137.163 374.541 107.506 374.881
C 100.62 374.96 93.729 374.918 86.848 374.939
C 85.22 374.944 83.607 375.036 81.978 374.934
C 81.674 374.915 80.509 374.977 80.486 374.555 Z
M 178.922 348.586
C 177.808 356.606 182.764 362.608 190.395 364.191
C 190.555 363.388 190.035 362.332 189.887 361.549
C 187.286 360.388 185.082 360.027 183.358 357.452
C 179.045 351.006 182.097 340.137 190.105 338.446
C 192.586 337.922 195.278 338.14 197.796 338.108
C 202.366 338.049 206.927 337.892 211.5 337.868
C 226.001 337.791 240.501 337.897 255.002 337.784
C 262.264 337.727 269.512 337.519 276.769 337.381
C 280.212 337.316 284.144 336.611 287.515 337.498
C 289.835 338.109 291.73 340.292 292.948 342.244
C 296.344 347.687 296.036 355.075 291.604 359.911
C 288.896 362.867 285.908 363.853 282.002 363.91
C 280.968 363.926 279.572 364.315 278.626 363.729
C 277.308 362.914 276.353 359.915 275.892 358.499
C 274.066 358.034 271.697 358.281 269.852 358.547
C 269.065 360.36 268.657 362.249 268.114 364.156
C 268.833 364.603 270.146 364.324 271.001 364.333
C 273.119 364.355 275.242 364.299 277.358 364.361
C 282.366 364.509 287.23 364.975 291.763 362.31
C 300.347 357.264 300.263 343.896 293.554 337.46
C 290.564 334.592 287.002 334.482 283.11 333.984
C 278.745 333.426 274.427 332.634 270.045 332.188
C 257.063 330.865 244.052 329.736 230.993 330.884
C 222.218 331.655 213.546 333.534 204.859 334.943
C 197.079 336.205 185.564 335.042 180.882 342.713
C 179.749 344.569 179.394 346.503 178.922 348.586 Z
M 199.974 364.235
C 199.971 364.338 199.968 364.441 199.964 364.544
C 203.279 364.417 206.629 364.171 209.959 364.367
C 209.454 362.578 209.087 360.681 208.435 358.942
C 206.699 358.308 204.144 358.489 202.319 358.714
C 201.564 360.531 200.928 362.521 199.974 364.235 Z
M 217.489 363.09
C 217.381 363.593 217.217 364.078 217.081 364.574
C 220.343 364.629 223.709 364.051 226.97 364.447
C 226.357 362.613 226.206 360.235 225.362 358.534
C 223.168 358.482 220.83 358.132 218.678 358.702
C 218.279 360.153 217.989 361.672 217.489 363.09 Z
M 234.501 364.163
C 234.464 364.314 234.426 364.465 234.389 364.616
C 234.94 364.858 236.288 364.4 236.938 364.39
C 239.14 364.356 241.717 364.044 243.88 364.388
C 243.514 362.603 242.94 360.509 242.262 358.811
C 241.281 357.848 237.061 358.261 235.763 358.702
C 235.329 360.48 235.142 362.455 234.501 364.163 Z
M 251.023 364.166
C 250.994 364.31 250.965 364.455 250.936 364.599
C 253.316 364.485 255.659 364.444 258.051 364.445
C 258.976 364.446 260.114 364.76 261.007 364.572
C 260.202 362.525 259.8 360.4 259.074 358.34
C 256.907 358.483 254.729 358.212 252.582 358.62
C 251.966 360.433 251.755 362.4 251.023 364.166 Z"
opacity="1" fill="rgb(25,25,25)" fill-rule="evenodd" />
<path d="
M 96.979 498.115
C 97.076 497.506 97.053 497.867 96.954 497.03
C 98.927 496.395 102.862 496.533 104.916 496.888
C 104.657 507.244 104.9 517.635 104.948 527.995
C 104.963 531.021 105.049 534.048 105.055 537.073
C 105.057 538.206 105.289 540.156 104.908 541.193
C 102.39 541.133 99.816 540.953 97.305 541.017
C 96.879 538.901 97.132 536.539 97.097 534.384
C 97.035 530.589 96.886 526.798 96.891 522.991
C 96.902 514.787 96.27 506.286 96.979 498.115 Z"
opacity="1" fill="rgb(229,116,36)" fill-rule="evenodd" />
<path d="
M 103.35 403.47
C 103.448 403.334 103.546 403.198 103.644 403.061
C 108.207 402.435 112.978 402.754 117.579 402.756
C 125.222 402.761 132.864 402.736 140.507 402.729
C 145.007 402.724 149.507 402.731 154.007 402.734
C 156.204 402.735 158.817 402.403 160.955 402.928
C 160.785 406.14 160.957 409.404 160.927 412.624
C 160.911 414.344 160.605 416.39 160.948 418.064
C 160.554 418.441 159.049 418.171 158.495 418.179
C 155.831 418.215 153.164 418.189 150.5 418.183
C 140.129 418.158 129.734 418.065 119.374 418.359
C 119.161 423.451 119.495 428.565 119.31 433.649
C 119.733 434.016 121.065 433.747 121.634 433.746
C 124.091 433.743 126.549 433.743 129.007 433.744
C 135.007 433.747 141.007 433.744 147.007 433.745
C 150.087 433.746 153.436 433.389 156.483 433.829
C 156.122 438.42 155.909 443.979 156.517 448.534
C 155.934 448.924 154.526 448.691 153.841 448.69
C 151.393 448.687 148.945 448.71 146.498 448.714
C 137.485 448.73 128.398 448.363 119.394 448.745
C 119.296 454.246 118.799 460.007 119.379 465.483
C 123.033 465.112 126.835 465.393 130.508 465.395
C 137.175 465.399 143.841 465.374 150.507 465.356
C 153.147 465.349 155.791 465.32 158.431 465.347
C 159.143 465.354 160.629 465.131 161.132 465.64
C 161.384 470.664 161.012 475.718 161.203 480.742
C 147.336 481.204 133.372 480.709 119.496 480.733
C 115.663 480.74 111.829 480.743 107.996 480.73
C 106.907 480.726 104.339 481.187 103.428 480.675
C 102.422 467.756 103.285 454.462 103.285 441.505
C 103.285 428.93 102.398 416.008 103.35 403.47 Z"
opacity="1" fill="rgb(26,26,26)" fill-rule="evenodd" />
<path d="
M 112.774 509.856
C 114.686 509.827 116.598 509.827 118.51 509.815
C 119.036 509.812 119.941 509.611 120.323 509.965
C 120.589 514.79 120.384 519.669 120.376 524.5
C 120.372 526.78 119.998 529.756 121.193 531.814
C 123.704 536.14 130.08 535.054 132.188 530.953
C 133.075 529.228 132.721 527.48 132.952 525.635
C 133.568 520.723 133.326 515.214 133.087 510.273
C 133.547 509.637 134.346 509.88 135.085 509.894
C 137.104 509.935 139.124 509.864 141.143 509.86
C 141.792 517.643 141.171 525.687 141.133 533.497
C 141.121 535.999 140.863 538.663 141.139 541.148
C 140.43 540.764 139.277 541.079 138.504 541.066
C 137.021 541.042 135.17 541.165 133.739 540.858
C 133.715 540.104 133.87 536.595 133.265 536.858
C 131.656 538.584 130 540.375 127.729 541.221
C 122.423 543.197 116.217 540.779 113.963 535.577
C 111.75 530.47 112.62 523.939 112.628 518.502
C 112.632 515.738 112.224 512.56 112.774 509.856 Z"
opacity="1" fill="rgb(232,116,40)" fill-rule="evenodd" />
<path d="
M 146.312 509.861
C 147.629 509.931 149.343 510.1 150.631 509.81
C 150.677 506.815 150.596 503.782 150.716 500.794
C 152.952 500.879 156.343 500.169 158.425 500.926
C 158.406 503.785 158.23 506.913 158.598 509.744
C 161.113 509.641 163.655 509.875 166.182 509.771
C 166.587 511.892 166.187 514.23 166.216 516.383
C 163.868 516.665 161.281 516.386 158.905 516.436
C 158.568 520.578 158.739 524.803 158.77 528.957
C 158.782 530.569 158.536 532.635 159.839 533.839
C 161.508 535.381 164.283 534.508 166.202 533.965
C 166.651 535.813 167.072 538.004 166.887 539.91
C 165.785 540.874 163.954 541.22 162.549 541.433
C 158.19 542.096 153.645 541.113 151.804 536.643
C 150.802 534.209 150.941 531.327 150.928 528.74
C 150.908 524.665 150.991 520.585 150.93 516.513
C 149.442 516.342 147.886 516.334 146.393 516.457
C 145.632 515.075 145.88 511.355 146.312 509.861 Z"
opacity="1" fill="rgb(232,113,38)" fill-rule="evenodd" />
<path d="
M 172.344 499.025
C 173.307 496.44 177.496 495.856 179.492 497.564
C 181.14 498.974 181.485 501.989 180.581 503.893
C 179.448 506.277 175.199 506.151 173.442 504.629
C 172.118 503.484 171.753 500.612 172.344 499.025 Z"
opacity="1" fill="rgb(227,108,32)" fill-rule="evenodd" />
<path d="
M 172.851 402.886
C 182.007 402.553 191.199 402.731 200.36 402.736
C 209.328 402.74 218.248 402.554 225.933 407.92
C 241.589 418.852 238.449 447.66 219.259 452.967
C 224.316 459.678 228.8 466.852 233.554 473.779
C 234.749 475.522 235.907 477.303 237.149 479.011
C 237.342 479.276 238.393 480.404 238.342 480.687
C 234.233 480.561 230.116 480.64 226.004 480.656
C 223.909 480.665 221.316 480.993 219.301 480.397
C 217.811 479.132 216.844 477.304 215.715 475.736
C 212.548 471.337 209.476 466.872 206.35 462.443
C 204.789 460.233 203.436 457.362 201.461 455.508
C 198.531 455.21 195.416 455.625 192.459 455.589
C 191.458 455.577 189.781 455.289 188.924 455.793
C 188.863 463.965 188.061 472.544 188.857 480.678
C 183.555 481.012 178.144 480.125 172.862 480.586
C 172.167 479.781 172.719 476.655 172.703 475.506
C 172.64 470.673 172.643 465.838 172.632 461.005
C 172.59 441.794 171.927 422.429 172.582 403.234
C 172.672 403.118 172.762 403.002 172.851 402.886 Z
M 188.745 418.557
C 188.815 423.699 188.788 428.851 188.795 433.995
C 188.797 436.031 188.304 438.96 188.92 440.882
C 193.826 440.535 198.86 440.869 203.781 440.912
C 206.784 440.938 209.975 441.087 212.811 439.918
C 221.259 436.435 221.972 423.795 213.893 419.605
C 211.113 418.164 207.742 418.39 204.708 418.367
C 199.383 418.328 194.063 418.426 188.745 418.557 Z"
opacity="1" fill="rgb(27,27,27)" fill-rule="evenodd" />
<path d="
M 172.953 509.922
C 175.385 509.882 177.824 509.898 180.254 509.997
C 181.184 512.823 180.595 516.876 180.588 519.844
C 180.572 526.887 180.228 533.948 180.444 540.988
C 177.992 541.464 175.379 540.755 172.89 540.973
C 172.125 530.788 173.066 520.459 172.571 510.252
C 172.698 510.142 172.826 510.032 172.953 509.922 Z"
opacity="1" fill="rgb(228,117,43)" fill-rule="evenodd" />
<path d="
M 180.962 295.119
C 182.331 287.798 178.616 275.217 189.086 273.046
C 191.447 272.557 193.962 272.842 196.356 272.83
C 196.998 269.077 198.007 265.141 201.699 263.284
C 204.907 261.67 210.003 262.548 213.507 262.555
C 222.707 262.576 231.97 262.42 241.158 262.859
C 241.083 258.507 241.198 254.127 241.261 249.774
C 241.288 247.864 240.923 245.419 241.79 243.657
C 243.438 240.31 251.711 240.291 253.816 243.117
C 255.076 244.808 255.598 247.077 256.431 248.992
C 258.29 253.261 260.088 257.611 261.664 261.995
C 262.227 263.56 262.625 266.577 263.634 267.8
C 266.277 267.466 269.1 268.146 271.696 267.767
C 271.683 265.613 272.721 263.346 273.283 261.295
C 274.511 256.809 275.801 252.346 277.09 247.878
C 280.78 235.087 283.735 220.885 290.88 209.472
C 293.199 205.768 295.902 202.274 299.002 199.189
C 300.55 197.648 302.773 196.38 304.067 194.649
C 305.228 193.095 305.665 190.804 306.461 189.039
C 308.629 184.231 311.578 179.03 316.004 175.959
C 318.449 174.263 321.462 173.052 324.442 172.837
C 326.881 172.66 329.475 173.134 331.875 172.721
C 334.933 171.228 337.56 168.116 340.387 166.165
C 349.27 160.036 357.862 153.492 366.546 147.092
C 369.211 145.127 371.722 142.168 374.679 140.724
C 375.854 140.732 377.128 141.784 378.226 141.524
C 382.451 139.177 386.261 135.977 390.325 133.355
C 396.17 129.585 402.163 125.745 407.754 121.627
C 407.982 118.81 407.31 113.985 411.134 112.932
C 412.89 112.449 415.496 113.43 417.248 113.721
C 418.453 113.921 420.398 113.893 421.394 114.573
C 424.664 119.039 427.921 123.501 431.244 127.936
C 432.93 130.186 435.465 132.634 436.568 135.232
C 437.108 136.504 436.718 138.456 436.722 139.816
C 436.729 142.894 436.649 146.026 437.335 149.046
C 438.225 152.958 442.742 157.303 441.822 161.412
C 441.391 162.306 440.461 162.817 439.969 163.689
C 440.138 167.672 441.452 171.76 442.158 175.679
C 443.768 184.614 445.238 193.577 446.789 202.523
C 447.31 205.529 447.94 208.513 448.486 211.513
C 448.741 212.911 449.235 214.415 449.073 215.841
C 448.589 216.451 447.768 216.781 447.15 217.244
C 446.693 220.673 448.125 224.906 448.738 228.286
C 449.709 233.634 450.078 239.241 451.517 244.485
C 452.857 245.116 454.561 244.457 455.86 245.316
C 458.321 246.943 458.984 251.667 456.481 253.545
C 455.749 253.801 455 253.903 454.286 254.217
C 453.039 259.789 450.38 265.406 449.673 271.047
C 450.264 272.158 451.426 272.939 451.869 274.114
C 452.347 275.386 451.774 276.839 452.338 278.03
C 453.697 278.82 455.121 279.452 456.263 280.569
C 459.034 283.278 460.422 287.699 461.49 291.326
C 464.719 302.288 462.803 316.435 453.706 324.203
C 449.299 327.966 444.989 327.861 439.499 327.809
C 435.718 327.774 431.934 327.742 428.154 327.779
C 425.091 327.808 421.004 328.86 418.073 328.014
C 419.377 326.756 421.475 325.956 422.965 324.721
C 426.498 321.791 428.898 318.085 430.5 313.823
C 430.917 312.714 432.552 309.138 431.575 308.197
C 430.543 309.308 430.152 311.62 429.396 313.052
C 427.829 316.018 425.879 318.865 423.44 321.192
C 421.913 322.648 420.125 323.758 418.218 324.648
C 416.473 325.462 414.638 326.011 412.747 326.363
C 401.893 328.381 393.613 320.368 384.869 315.355
C 380.429 312.81 376.586 310.425 372.83 306.906
C 371.472 305.635 369.436 304.275 369.141 302.333
C 372.202 301.188 375.942 302.545 378.266 304.671
C 378.435 304.838 378.159 303.745 378.137 303.592
C 377.994 302.619 377.979 301.941 378.361 301.016
C 380.995 301.061 382.836 303.581 384.837 305.009
C 384.607 303.466 384.305 302.192 384.572 300.629
C 385.993 300.695 386.997 301.088 388.181 301.847
C 388.812 302.252 389.934 303.258 390.731 303.202
C 390.847 302.625 390.676 301.865 390.573 301.295
C 391.16 300.327 393.046 299.917 393.933 298.956
C 396.151 296.549 397.99 293.666 399.996 291.076
C 403.947 285.975 407.725 280.639 411.257 275.242
C 412.744 272.97 414.021 270.466 415.702 268.332
C 417.768 265.71 422.203 264.04 425.519 264.477
C 428.742 264.902 429.946 270.024 431.249 272.393
C 431.768 273.337 432.504 275.208 433.806 275.181
C 434.26 274.074 432.558 271.405 432.098 270.361
C 430.174 265.989 427.98 261.613 422.437 262.63
C 421.157 262.865 420.171 263.452 418.98 263.916
C 418.604 262.765 418.707 261.38 418.513 260.177
C 418.001 257.003 417.55 253.806 416.978 250.642
C 414.873 238.998 413.144 227.285 411.117 215.627
C 409.266 204.983 407.639 194.274 406.064 183.586
C 405.45 179.421 403.925 175.012 404.053 170.789
C 405.442 168.841 407.648 167.447 409.212 165.618
C 412.932 161.267 415.131 153.269 409.633 149.225
C 408.451 148.356 407.232 147.859 405.772 147.734
C 404.985 147.667 403.417 148.037 402.741 147.617
C 405.083 142.515 407.211 136.763 407.927 131.175
C 408.125 129.624 408.625 127.638 408.218 126.1
C 401.586 129.798 395.616 134.805 389.25 138.96
C 386.587 140.698 381.962 142.818 380.296 145.584
C 380.412 146.327 380.758 147.264 380.406 147.968
C 377.983 150.741 373.862 152.478 370.82 154.526
C 364.983 158.455 359.422 162.803 353.627 166.797
C 351.368 168.353 349.104 169.895 346.815 171.405
C 346.244 171.781 344.879 172.522 344.867 173.327
C 344.862 173.708 345.635 173.228 345.981 173.07
C 347.468 172.394 348.939 171.687 350.427 171.014
C 353.958 169.418 357.44 167.719 360.954 166.09
C 368.2 162.732 375.565 159.597 382.74 156.083
C 386.293 154.344 390.544 151.467 394.459 150.795
C 396.376 150.465 398.329 151.087 400.351 150.769
C 401.829 150.537 403.328 150.258 404.828 150.261
C 409.427 150.267 410.721 154.873 409.882 158.719
C 409.382 161.013 407.845 163.097 406.18 164.696
C 404.9 165.926 402.905 167.214 402.25 168.934
C 401.573 170.713 402.498 172.922 402.099 174.785
C 400.441 176.261 397.982 177.072 396.049 178.136
C 392.031 180.349 387.983 182.511 383.966 184.725
C 370.198 192.315 356.255 199.624 342.641 207.486
C 336.713 210.909 331.378 214.653 326.167 219.08
C 323.854 221.045 320.694 223.203 319.373 226.023
C 318.361 228.183 318.521 231.331 318.181 233.681
C 317.622 237.55 316.362 241.345 316.062 245.246
C 322.692 245.075 329.437 245.814 336.062 246.14
C 338.276 246.249 342.194 245.558 344.08 246.836
C 345.535 247.823 346.274 249.95 346.954 251.485
C 348.532 255.044 349.72 258.763 350.882 262.473
C 353.822 271.868 356.655 282.119 356.15 292.055
C 355.838 298.184 354.027 303.724 352.625 309.606
C 353.427 309.942 354.459 310.245 355.03 310.931
C 355.298 312.389 354.265 314.057 353.425 315.183
C 350.191 319.513 346.826 319.7 341.763 319.698
C 324.802 319.691 307.822 319.671 290.864 319.918
C 264.442 320.302 237.948 320.295 211.5 320.25
C 205.245 320.239 198.989 320.236 192.733 320.247
C 189.301 320.253 185.764 320.392 183.062 317.886
C 180.755 315.745 180.752 312.815 180.8 309.902
C 180.883 305.001 180.607 300.005 180.962 295.119 Z
M 243.9 245.574
C 243.333 251.242 243.957 257.112 243.762 262.807
C 246.582 262.775 249.397 262.731 252.217 262.817
C 253.502 262.856 255.175 262.714 256.398 263.146
C 258.342 263.833 259.089 266.232 260.932 267.032
C 260.895 264.784 259.008 261.953 258.132 259.888
C 256.788 256.725 255.478 253.544 254.217 250.343
C 253.43 248.344 252.835 246.069 251.588 244.296
C 249.355 244.089 246.044 243.761 244.111 245.039
C 244.041 245.217 243.97 245.396 243.9 245.574 Z
M 296.497 277.621
C 296.594 278.682 297.436 279.527 297.988 280.415
C 299.127 282.246 300.094 284.624 301.547 286.203
C 301.946 285.654 301.78 284.74 301.955 284.083
C 302.569 281.777 302.996 279.428 303.534 277.103
C 305.52 268.532 306.65 259.789 309.339 251.41
C 308.479 250.748 306.336 251.455 305.619 252.108
C 303.96 254.558 303.385 257.912 302.41 260.68
C 300.427 266.313 298.597 272.032 296.497 277.621 Z
M 307.418 296.072
C 307.299 296.703 307.147 297.116 307.386 297.72
C 309.022 299.028 310.216 300.349 311.604 301.895
C 313.661 302.363 316.157 301.95 318.279 302.002
C 319.06 302.021 320.226 302.274 320.929 301.893
C 322.27 290.136 321.467 278.629 319.44 267.017
C 318.759 263.112 318.444 257.81 316.614 254.292
C 313.453 264.486 311.842 275.195 309.568 285.608
C 308.824 289.011 308.512 292.78 307.418 296.072 Z
M 307.947 245.247
C 308.191 245.683 311.852 245.704 312.437 245.398
C 312.833 242.537 313.735 239.829 314.204 236.988
C 314.313 236.329 315.007 232.572 314.625 232.946
C 312.144 236.879 310.539 241.407 307.947 245.247 Z
M 308.497 190.08
C 308.188 190.873 308.305 190.48 308.133 191.253
C 308.349 191.769 310.372 189.881 310.671 189.607
C 313.175 187.312 315.617 184.951 318.115 182.649
C 320.161 180.764 322.534 179.216 324.872 177.719
C 325.432 177.361 328.544 176.132 328.158 175.625
C 317.908 173.937 312.899 182.504 308.497 190.08 Z
M 321.982 251.67
C 322.055 254.34 323.086 257.167 323.67 259.767
C 324.632 264.057 325.428 268.387 326.147 272.724
C 327.79 282.624 327.471 292.199 326.719 302.147
C 328.751 302.614 331.371 302.093 333.472 302.068
C 338.996 302.003 344.694 301.568 350.202 302
C 350.576 301.58 350.502 299.77 350.6 299.15
C 350.998 296.645 351.169 294.146 351.449 291.632
C 352.424 282.886 349.572 273.244 347.207 264.924
C 345.927 260.419 344.786 255.504 342.332 251.473
C 341.075 250.719 338.943 251.15 337.507 251.056
C 332.435 250.724 326.878 250.119 321.829 250.656
C 321.88 250.994 321.931 251.332 321.982 251.67 Z
M 435.054 180.489
C 435.026 184.837 435.487 189.241 435.577 193.623
C 435.917 210.059 436.286 226.784 435.65 243.215
C 437.14 243.736 439.413 243.257 440.999 243.233
C 443.252 243.199 445.308 243.651 447.514 243.891
C 445.931 237.703 445.221 231.151 444.251 224.84
C 444.003 223.226 443.719 221.622 443.447 220.013
C 443.373 219.575 443.413 218.685 443.067 218.438
C 442.1 218.116 441.204 217.673 440.481 216.947
C 439.461 214.739 439.905 211.896 439.638 209.526
C 438.971 203.615 438.094 197.7 437.171 191.817
C 436.754 189.153 436.63 186.277 435.995 183.666
C 435.832 183 435.872 180.239 435.305 179.897
C 435.121 179.786 435.137 180.291 435.054 180.489 Z
M 435.379 251.257
C 435.296 256.056 434.995 261.018 435.213 265.81
C 435.25 266.621 436.567 270.072 437.733 269.477
C 438.611 264.18 440.722 259.277 441.783 254.04
C 440.41 252.751 437.271 251.066 435.379 251.257 Z"
opacity="1" fill="rgb(235,116,39)" fill-rule="evenodd" />
<path d="
M 186.434 524.11
C 186.591 521.866 187.234 519.571 188.337 517.61
C 195.13 505.546 214.833 507.284 218.408 521.097
C 218.806 522.637 219.173 524.352 219.075 525.952
C 218.925 528.392 218.271 530.881 217.12 533.043
C 216.049 535.053 214.702 536.85 212.863 538.22
C 201.65 546.576 185.441 538.249 186.434 524.11 Z
M 194.388 524.085
C 193.363 531.147 201.114 538.283 207.604 533.262
C 208.495 532.573 209.251 531.703 209.84 530.746
C 210.516 529.65 210.911 528.412 211.103 527.144
C 212.134 520.304 204.46 512.514 198.011 517.778
C 197.104 518.518 196.326 519.412 195.723 520.418
C 195.048 521.546 194.577 522.781 194.388 524.085 Z"
opacity="1" fill="rgb(228,112,36)" fill-rule="evenodd" />
<path d="
M 225.319 509.921
C 227.761 509.895 230.213 509.891 232.656 509.827
C 233.294 510.666 232.672 512.624 232.974 513.671
C 234.764 512.056 236.207 510.561 238.609 509.819
C 240.24 509.315 242.042 509.267 243.73 509.46
C 256.286 510.894 253.649 526.587 253.686 535.502
C 253.693 537.285 253.417 539.488 253.81 541.219
C 251.21 541.148 248.502 540.865 245.918 541.018
C 245.628 536.318 245.799 531.593 245.755 526.885
C 245.733 524.588 246.009 521.91 244.952 519.79
C 242.526 514.926 235.631 515.608 233.621 520.505
C 232.812 522.474 233.083 524.909 233.071 526.997
C 233.045 531.625 233.632 536.661 232.905 541.236
C 230.416 541.058 227.729 541.5 225.279 541.037
C 225.746 533.416 225.135 525.643 225.198 518.003
C 225.22 515.364 224.917 512.529 225.319 509.921 Z"
opacity="1" fill="rgb(230,115,38)" fill-rule="evenodd" />
<path d="
M 240.777 402.839
C 256.337 402.459 271.941 402.736 287.507 402.736
C 291.675 402.736 295.842 402.733 300.009 402.75
C 301.161 402.755 303.632 402.298 304.564 402.895
C 305.053 406.486 304.569 410.491 304.579 414.127
C 304.582 415.251 304.196 417.108 304.552 418.114
C 302.402 418.742 299.246 418.18 297.001 418.176
C 291.614 418.164 286.223 418.253 280.838 418.224
C 280.627 438.936 280.522 459.698 280.809 480.407
C 279.046 480.919 276.828 480.602 275.003 480.617
C 271.605 480.643 267.908 481.008 264.558 480.386
C 263.812 459.774 264.429 439.037 264.39 418.409
C 262.432 417.907 260.015 418.252 257.999 418.247
C 252.438 418.233 246.311 418.963 240.812 418.226
C 240.76 413.114 240.516 407.947 240.777 402.839 Z"
opacity="1" fill="rgb(25,25,25)" fill-rule="evenodd" />
<path d="
M 274.323 509.881
C 275.765 510.003 277.376 510.07 278.816 509.903
C 278.589 506.887 279.071 503.827 278.807 500.802
C 281.368 500.829 284.152 500.459 286.689 500.807
C 286.568 503.756 286.761 506.737 286.643 509.694
C 289.083 509.718 292.072 509.363 294.444 509.882
C 294.351 512.025 294.41 514.195 294.381 516.341
C 293.895 516.783 292.77 516.587 292.139 516.561
C 290.621 516.498 288.214 516.138 286.855 516.813
C 286.807 520.932 286.718 525.06 286.806 529.18
C 286.839 530.697 286.613 532.773 287.797 533.927
C 289.621 535.702 292.619 534.196 294.505 533.383
C 295.085 534.75 295.61 538.239 295.251 539.686
C 293.706 540.526 292.325 541.058 290.613 541.464
C 285.982 542.562 280.993 540.624 279.553 535.858
C 278.808 533.392 279.06 530.552 279.06 528.004
C 279.061 524.252 278.865 520.504 278.977 516.753
C 277.393 516.679 275.81 516.642 274.227 516.641
C 274.368 514.418 274.455 512.104 274.323 509.881 Z"
opacity="1" fill="rgb(231,116,39)" fill-rule="evenodd" />
<path d="
M 298.913 522.589
C 299.782 519.113 300.999 516.019 303.63 513.463
C 309.486 507.775 319.445 507.838 325.246 513.581
C 329.602 517.894 328.977 522.742 329.797 528.253
C 325.079 528.192 320.348 528.361 315.629 528.382
C 312.796 528.395 309.823 528.12 307.019 528.573
C 306.182 530.931 308.854 533.255 310.777 534.303
C 314.928 536.567 319.862 534.724 323.012 531.75
C 324.673 532.05 326.963 534.325 327.996 535.575
C 327.375 536.783 325.959 537.852 324.914 538.697
C 319.859 542.788 311.726 542.963 306.255 539.612
C 300.323 535.978 297.826 529.344 298.913 522.589 Z
M 306.373 522.134
C 306.317 522.324 306.261 522.515 306.205 522.705
C 311.43 522.545 316.718 522.965 321.959 522.843
C 321.005 517.756 315.991 513.5 310.799 516.456
C 308.496 517.768 307.482 519.859 306.373 522.134 Z"
opacity="1" fill="rgb(229,114,40)" fill-rule="evenodd" />
<path d="
M 314.874 404.108
C 314.95 403.438 314.925 403.834 314.899 402.918
C 320.883 402.012 327.459 402.727 333.508 402.73
C 345.797 402.736 359.692 400.732 369.868 409.09
C 379.87 417.306 380.749 432.411 374.248 442.946
C 371.484 447.426 366.933 451.528 361.681 452.703
C 366.65 459.076 370.841 466.14 375.504 472.747
C 377.319 475.318 378.885 478.221 381.015 480.546
C 380.13 481.132 377.579 480.614 376.502 480.613
C 373.003 480.611 369.505 480.65 366.006 480.621
C 364.639 480.61 362.685 480.938 361.421 480.395
C 355.515 472.355 350.339 463.797 344.505 455.717
C 343.431 455.132 341.711 455.476 340.511 455.479
C 337.518 455.487 334.525 455.444 331.536 455.415
C 330.638 461.413 331.248 467.944 331.259 474.003
C 331.261 475.634 331.321 477.272 331.298 478.901
C 331.292 479.266 331.411 480.174 331.175 480.454
C 326.068 481.181 320.279 480.628 315.13 480.431
C 314.439 477.459 314.855 474.049 314.852 471.002
C 314.844 465.003 314.82 459.004 314.809 453.005
C 314.791 442.171 314.806 431.337 314.818 420.504
C 314.824 415.09 314.419 409.501 314.874 404.108 Z
M 331.414 418.403
C 331.308 418.526 331.202 418.649 331.096 418.772
C 331.495 425.946 331.727 433.624 331.13 440.785
C 334.818 441.087 338.673 440.764 342.382 440.807
C 347.241 440.864 352.438 441.465 356.817 438.982
C 364.01 434.903 363.413 423.164 356.295 419.442
C 353.666 418.067 350.31 418.307 347.433 418.28
C 342.13 418.229 336.703 418.011 331.414 418.403 Z"
opacity="1" fill="rgb(26,26,26)" fill-rule="evenodd" />
<path d="
M 335.31 509.922
C 337.423 510.006 340.853 509.18 342.751 510.144
C 342.791 511.701 342.809 513.246 342.821 514.808
C 343.159 515.279 343.693 514.239 343.904 513.975
C 344.644 513.046 345.415 512.214 346.371 511.503
C 348.736 509.746 351.716 508.993 354.617 509.609
C 354.504 511.917 353.842 514.95 354.305 517.197
C 352.593 517.065 350.652 517.018 348.997 517.541
C 346.508 518.329 344.331 520.648 343.415 523.054
C 342.846 524.549 343.228 526.295 343.032 527.852
C 342.485 532.195 342.696 537.051 342.842 541.421
C 340.391 541.346 337.94 541.277 335.49 541.344
C 335.03 540.91 335.262 539.651 335.264 539.005
C 335.269 537.171 335.245 535.338 335.247 533.504
C 335.252 528.171 335.274 522.838 335.266 517.505
C 335.263 515.13 334.757 512.223 335.31 509.922 Z"
opacity="1" fill="rgb(230,115,38)" fill-rule="evenodd" />
<path d="
M 359.152 510.212
C 361.541 509.851 364.3 509.693 366.68 510.107
C 366.895 511.553 366.635 513.206 367.013 514.591
C 368.589 513.326 369.521 511.565 371.336 510.493
C 373.427 509.257 375.94 509.348 378.274 509.17
C 378.121 511.499 377.769 514.935 378.313 517.193
C 376.518 517.087 374.815 516.879 373.051 517.507
C 366.034 520.007 367.083 528.096 367.094 534.003
C 367.098 536.436 367.012 538.933 367.189 541.355
C 364.638 541.321 361.69 541.645 359.191 541.181
C 359.874 530.937 359.102 520.475 359.152 510.212 Z"
opacity="1" fill="rgb(228,113,36)" fill-rule="evenodd" />
<path d="
M 381.444 530.085
C 381.823 528.829 382.184 527.586 382.957 526.5
C 385.959 522.284 391.333 521.415 396.167 522.038
C 398.084 522.285 399.933 523.007 401.847 523.183
C 401.878 517.633 397.249 514.48 391.938 516.163
C 390.088 516.749 388.609 518.076 387.044 519.151
C 385.868 518.513 383.076 515.814 383.14 514.305
C 383.157 513.897 383.897 513.324 384.196 513.077
C 385.584 511.928 387.145 511.035 388.834 510.401
C 393.77 508.548 400.357 508.835 404.669 512.112
C 408.39 514.941 409.138 519.196 409.229 523.595
C 409.314 527.725 409.273 531.86 409.287 535.991
C 409.292 537.651 409 539.572 409.265 541.197
C 406.857 541.295 404.385 541.057 401.995 541.388
C 401.58 540.492 402.526 538.373 401.831 537.713
C 399.605 539.892 397.027 541.68 393.873 542.096
C 386.676 543.046 380.298 537.419 381.444 530.085 Z
M 388.885 530.045
C 387.946 532.595 389.686 534.935 392.131 535.581
C 395.322 536.424 399.791 535.352 401.055 531.955
C 403.373 525.727 390.572 525.464 388.885 530.045 Z"
opacity="1" fill="rgb(227,112,37)" fill-rule="evenodd" />
<path d="
M 384.417 480.067
C 386.265 474.106 388.888 468.406 391.302 462.661
C 395.581 452.473 399.937 442.315 404.222 432.129
C 406.889 425.789 409.58 419.46 412.288 413.138
C 413.73 409.772 414.832 405.817 416.911 402.783
C 418.063 402.238 419.737 402.518 421.007 402.519
C 424.448 402.523 428.328 403.006 431.72 402.432
C 432.852 403.713 433.402 405.834 434.149 407.368
C 436.144 411.466 437.749 415.729 439.605 419.887
C 445.74 433.636 451.601 447.544 457.45 461.415
C 459.423 466.095 461.314 470.804 463.202 475.521
C 463.731 476.842 464.306 478.14 464.817 479.469
C 464.916 479.727 465.384 480.32 465.325 480.591
C 459.694 480.964 453.861 480.122 448.202 480.607
C 447.124 479.523 446.658 477.302 446.042 475.894
C 444.346 472.017 442.203 467.968 440.965 463.939
C 434.549 463.528 427.944 463.954 421.508 463.955
C 417.156 463.955 412.422 463.429 408.115 464.017
C 405.985 467.844 404.654 472.175 402.837 476.166
C 402.228 477.503 401.76 479.341 400.781 480.446
C 398.999 480.954 396.847 480.677 395.002 480.68
C 391.403 480.686 387.79 480.607 384.195 480.679
C 384.269 480.475 384.343 480.271 384.417 480.067 Z
M 413.771 448.783
C 414.957 449.421 418.1 448.879 419.502 448.882
C 423.002 448.889 426.503 448.891 430.003 448.88
C 431.567 448.875 433.415 448.581 434.932 448.865
C 433.045 443.046 430.299 437.28 427.902 431.641
C 426.996 429.511 426.181 427.335 425.339 425.178
C 425.121 424.619 424.824 422.839 424.242 423.46
C 420.946 431.936 417.392 440.437 413.771 448.783 Z"
opacity="1" fill="rgb(26,26,26)" fill-rule="evenodd" />
<path d="
M 413.942 535.569
C 415.625 534.351 416.739 532.493 418.557 531.433
C 421.875 533.461 424.221 535.851 428.474 535.6
C 430.711 535.468 434.269 533.443 432.102 530.838
C 430.717 529.174 427.863 529.065 425.888 528.599
C 420.789 527.393 415.436 525.035 415.352 518.947
C 415.334 517.611 415.598 516.27 416.136 515.043
C 418.99 508.533 428.267 508.283 433.861 510.832
C 435.074 511.385 438.749 512.882 438.941 514.376
C 437.956 515.897 436.836 517.806 435.449 518.969
C 434.539 518.685 433.801 517.836 432.958 517.378
C 430.679 516.138 428.148 515.437 425.538 515.735
C 423.528 515.964 422.146 517.676 422.847 519.68
C 424.167 521.353 426.493 521.603 428.442 522.074
C 432.425 523.035 437.415 524.284 439.315 528.312
C 442.329 534.704 436.692 540.69 430.512 541.57
C 426.21 542.182 421.565 541.385 417.8 539.176
C 416.292 538.292 415.153 536.993 413.704 536.063
C 413.783 535.898 413.863 535.734 413.942 535.569 Z"
opacity="1" fill="rgb(227,114,39)" fill-rule="evenodd" />
<path d="
M 443.442 524.104
C 444.228 520.018 445.448 516.194 448.619 513.265
C 455.721 506.701 467.097 508.599 472.201 516.586
C 474.321 519.902 474.773 524.448 474.293 528.283
C 468.921 528.512 463.473 528.547 458.108 528.452
C 456.238 528.419 452.843 527.854 451.349 529.013
C 452.996 534.19 458.318 536.268 463.352 534.713
C 465.234 534.132 466.487 532.883 467.932 531.637
C 469.769 532.189 471.624 534.146 472.958 535.489
C 472.57 536.543 471.389 537.303 470.571 538.012
C 467.635 540.558 463.736 541.913 459.856 541.904
C 449.911 541.882 442.48 534.114 443.442 524.104 Z
M 451.455 521.552
C 451.194 522.355 451.302 521.949 451.13 522.771
C 454.758 522.842 458.379 522.876 462.01 522.894
C 463.478 522.902 465.39 522.548 466.79 522.833
C 465.861 517.789 460.755 513.792 455.694 516.504
C 453.598 517.628 452.42 519.454 451.455 521.552 Z"
opacity="1" fill="rgb(227,113,41)" fill-rule="evenodd" />
<path d="
M 472.96 404.602
C 473.045 404.12 473.113 403.637 473.197 403.156
C 473.908 402.483 475.708 402.751 476.633 402.75
C 479.091 402.747 481.551 402.734 484.008 402.774
C 485.09 402.792 486.443 402.553 487.459 402.922
C 488.71 405.244 490.823 407.366 492.477 409.431
C 495.061 412.657 497.491 416.031 499.98 419.332
C 506.258 427.656 512.721 435.837 518.963 444.187
C 520.877 446.747 522.554 449.56 524.566 452.029
C 524.376 449.587 524.68 446.965 524.688 444.5
C 524.705 439.001 524.724 433.503 524.71 428.003
C 524.69 419.747 523.905 411.054 524.771 402.845
C 528.683 402.789 532.594 402.742 536.508 402.76
C 537.716 402.765 539.899 402.331 540.939 402.882
C 540.373 412.865 540.908 423.009 540.906 433.008
C 540.903 448.771 540.643 464.576 540.921 480.333
C 540.094 480.99 538.026 480.586 537.003 480.585
C 533.767 480.581 530.476 480.787 527.248 480.615
C 525.902 479.688 524.951 477.863 524 476.549
C 522.195 474.052 520.297 471.608 518.403 469.177
C 511.499 460.313 504.778 451.294 498.012 442.322
C 495.729 439.294 493.321 436.352 491.232 433.185
C 490.851 432.607 489.583 430.309 489.005 430.673
C 489.507 435.193 489.117 439.943 489.101 444.496
C 489.073 452.163 489.191 459.83 489.198 467.497
C 489.202 470.663 489.198 473.83 489.185 476.996
C 489.181 477.927 489.54 479.681 489.036 480.492
C 483.789 480.767 478.52 480.386 473.278 480.63
C 472.676 476.612 472.872 472.352 472.86 468.295
C 472.841 461.697 472.861 455.099 472.872 448.5
C 472.895 433.938 472.043 419.136 472.96 404.602 Z"
opacity="1" fill="rgb(26,26,26)" fill-rule="evenodd" />
<path d="
M 480.23 509.826
C 482.68 509.858 485.145 509.816 487.598 509.802
C 487.824 510.874 487.65 512.245 487.483 513.316
C 487.441 513.527 489.149 512.047 489.499 511.781
C 490.803 510.787 492.193 509.979 493.804 509.61
C 498.562 508.517 503.652 510.05 506.032 514.529
C 506.932 514.548 508.659 512.149 509.43 511.516
C 511.393 509.907 513.72 509.221 516.235 509.23
C 517.597 509.235 518.988 509.358 520.298 509.751
C 528.911 512.335 528.087 522.551 528.097 529.693
C 528.1 531.555 528.108 533.417 528.089 535.278
C 528.068 537.302 527.918 539.302 527.863 541.32
C 525.298 541.182 522.622 541.044 520.062 541.231
C 519.648 539.888 519.945 537.831 519.942 536.413
C 519.934 532.753 519.99 529.087 519.911 525.427
C 519.863 523.156 519.924 520.611 518.621 518.636
C 515.81 514.376 509.907 516.437 508.262 520.646
C 507.407 522.834 507.755 525.693 507.742 527.999
C 507.717 532.448 507.514 536.948 507.713 541.392
C 505.161 541.364 502.599 541.188 500.047 541.293
C 499.801 536.298 499.996 531.272 499.981 526.265
C 499.974 523.917 500.265 521.003 498.936 518.94
C 496.302 514.852 490.356 515.951 488.389 520.053
C 487.542 521.818 487.927 524.791 487.888 526.718
C 487.787 531.61 487.713 536.537 487.837 541.427
C 485.445 541.744 482.848 541.283 480.425 541.375
C 479.991 540.61 480.185 539.383 480.187 538.507
C 480.191 536.506 480.139 534.505 480.137 532.503
C 480.128 524.945 480.281 517.382 480.23 509.826 Z"
opacity="1" fill="rgb(229,117,39)" fill-rule="evenodd" />
<path d="
M 533.472 525.108
C 534.17 520.918 535.022 517.049 538.053 513.84
C 543.748 507.814 554.568 507.899 560.153 513.998
C 564.203 518.42 563.74 523.173 564.229 528.66
C 556.624 529.198 548.892 527.745 541.259 528.663
C 543.085 533.265 547.679 536.758 552.795 534.951
C 554.801 534.242 556.004 532.335 557.914 531.572
C 559.647 532.655 561.155 534.028 562.861 535.131
C 558.39 542.425 547.475 543.738 540.629 539.321
C 535.965 536.312 533.142 530.623 533.472 525.108 Z
M 541.415 522.079
C 541.345 522.298 541.275 522.518 541.205 522.737
C 546.331 523.544 551.739 522.136 556.807 522.867
C 555.979 517.238 549.847 513.728 544.823 516.987
C 542.971 518.188 542.147 520.099 541.415 522.079 Z"
opacity="1" fill="rgb(225,113,40)" fill-rule="evenodd" />
<path d="
M 555.904 403.602
C 555.916 403.364 555.929 403.126 555.942 402.888
C 563.109 402.507 570.332 402.722 577.508 402.721
C 588.058 402.718 598.457 402.585 607.83 408.181
C 631.145 422.099 632.949 459.013 609.456 473.899
C 593.542 483.984 574.034 480.154 556.23 480.62
C 555.471 478.524 555.949 475.217 555.947 472.999
C 555.942 467.666 555.972 462.333 555.949 456.999
C 555.901 445.334 555.92 433.668 555.887 422.002
C 555.87 415.933 555.384 409.648 555.904 403.602 Z
M 572.475 418.557
C 572.386 418.582 572.296 418.607 572.206 418.632
C 572.018 430.244 572.284 441.884 572.282 453.5
C 572.282 456.403 572.294 459.306 572.292 462.209
C 572.291 462.976 571.982 464.879 572.481 465.397
C 577.166 464.887 581.95 465.54 586.654 465.299
C 592.224 465.013 597.887 463.037 602.165 459.402
C 613.41 449.848 611.786 429.976 599.516 422.15
C 591.877 417.278 581.2 417.744 572.475 418.557 Z"
opacity="1" fill="rgb(27,27,26)" fill-rule="evenodd" />
<path d="
M 569.922 509.824
C 572.452 509.875 575.018 509.856 577.55 509.795
C 577.733 511.136 577.466 512.575 577.312 513.912
C 578.182 513.836 579.582 511.806 580.362 511.305
C 582.948 509.642 585.787 508.951 588.867 509.365
C 600.269 510.898 598.596 524.671 598.497 533.021
C 598.466 535.652 599.068 538.816 598.394 541.37
C 595.828 541.182 593.212 541.214 590.638 541.172
C 590.572 536.054 590.431 530.947 590.393 525.826
C 590.374 523.265 590.593 520.284 588.783 518.216
C 585.682 514.673 579.921 516.591 578.321 520.621
C 577.44 522.842 577.764 525.673 577.759 528.013
C 577.751 532.204 577.056 537.114 577.761 541.229
C 575.226 541.181 572.693 541.14 570.159 541.063
C 569.493 530.66 570.078 520.231 569.922 509.824 Z"
opacity="1" fill="rgb(230,117,40)" fill-rule="evenodd" />
<path d="
M 602.86 509.918
C 604.335 509.972 605.864 509.982 607.337 509.889
C 607.056 506.887 607.548 503.789 607.375 500.767
C 609.951 500.602 612.746 500.409 615.32 500.624
C 615.003 503.595 615.332 506.682 615.281 509.668
C 617.682 510.352 620.529 509.447 622.991 509.815
C 622.848 512.069 623.058 514.455 623.197 516.707
C 621.415 516.418 619.311 516.529 617.504 516.583
C 616.805 516.603 615.978 516.457 615.408 516.869
C 615.46 520.8 615.411 524.734 615.452 528.666
C 615.468 530.096 615.16 532.227 616.068 533.439
C 617.73 535.655 620.712 534.444 622.757 533.631
C 623.121 535.564 623.925 537.859 623.77 539.821
C 622.132 540.739 620.429 541.423 618.555 541.663
C 617.282 541.825 615.994 541.806 614.727 541.596
C 605.419 540.047 607.652 527.624 607.482 520.813
C 607.449 519.483 607.677 517.832 607.3 516.568
C 605.76 516.536 604.22 516.638 602.684 516.593
C 602.838 514.498 602.209 511.903 602.86 509.918 Z"
opacity="1" fill="rgb(228,117,41)" fill-rule="evenodd" />

</svg>